# MagicaVoxel @ Ephtracy

# group
g troittoir

# material
mtllib troittoir.mtl
usemtl palette

# normals
vn -1 0 0
vn 1 0 0
vn 0 0 1
vn 0 0 -1
vn 0 -1 0
vn 0 1 0

# texcoords
vt 0.978516 0.5
vt 0.982422 0.5
vt 0.986328 0.5

# verts
v -10 0 10
v -10 0 8
v -10 0 7
v -10 0 3
v -10 0 2
v -10 0 -2
v -10 0 -3
v -10 0 -7
v -10 0 -8
v -10 0 -10
v -10 3 10
v -10 3 8
v -10 3 7
v -10 3 3
v -10 3 2
v -10 3 -2
v -10 3 -3
v -10 3 -7
v -10 3 -8
v -10 3 -10
v -8 2 10
v -8 2 8
v -8 2 7
v -8 2 3
v -8 2 2
v -8 2 -2
v -8 2 -3
v -8 2 -7
v -8 2 -8
v -8 2 -10
v -8 3 10
v -8 3 8
v -8 3 7
v -8 3 3
v -8 3 2
v -8 3 -2
v -8 3 -3
v -8 3 -7
v -8 3 -8
v -8 3 -10
v 10 0 10
v 10 0 -10
v 10 2 10
v 10 2 -10
v -10 0 10
v -10 3 10
v -8 0 10
v -8 2 10
v -8 3 10
v 10 0 10
v 10 2 10
v -10 0 -10
v -10 3 -10
v -8 0 -10
v -8 2 -10
v -8 3 -10
v 10 0 -10
v 10 2 -10
v -10 0 10
v -8 0 10
v 10 0 10
v -10 0 8
v -8 0 8
v -10 0 7
v -8 0 7
v -10 0 3
v -8 0 3
v -10 0 2
v -8 0 2
v -10 0 -2
v -8 0 -2
v -10 0 -3
v -8 0 -3
v -10 0 -7
v -8 0 -7
v -10 0 -8
v -8 0 -8
v -10 0 -10
v -8 0 -10
v 10 0 -10
v -8 2 10
v 10 2 10
v -8 2 8
v -8 2 7
v -8 2 3
v -8 2 2
v -8 2 -2
v -8 2 -3
v -8 2 -7
v -8 2 -8
v -8 2 -10
v 10 2 -10
v -10 3 10
v -8 3 10
v -10 3 8
v -8 3 8
v -10 3 7
v -8 3 7
v -10 3 3
v -8 3 3
v -10 3 2
v -8 3 2
v -10 3 -2
v -8 3 -2
v -10 3 -3
v -8 3 -3
v -10 3 -7
v -8 3 -7
v -10 3 -8
v -8 3 -8
v -10 3 -10
v -8 3 -10

# faces
f 11/2/1 2/2/1 1/2/1
f 12/3/1 3/3/1 2/3/1
f 12/2/1 2/2/1 11/2/1
f 13/2/1 4/2/1 3/2/1
f 13/3/1 3/3/1 12/3/1
f 14/3/1 5/3/1 4/3/1
f 14/2/1 4/2/1 13/2/1
f 15/2/1 6/2/1 5/2/1
f 15/3/1 5/3/1 14/3/1
f 16/3/1 7/3/1 6/3/1
f 16/2/1 6/2/1 15/2/1
f 17/2/1 8/2/1 7/2/1
f 17/3/1 7/3/1 16/3/1
f 18/3/1 9/3/1 8/3/1
f 18/2/1 8/2/1 17/2/1
f 19/2/1 10/2/1 9/2/1
f 19/3/1 9/3/1 18/3/1
f 20/2/1 10/2/1 19/2/1
f 21/2/2 22/2/2 31/2/2
f 22/3/2 23/3/2 32/3/2
f 31/2/2 22/2/2 32/2/2
f 23/2/2 24/2/2 33/2/2
f 32/3/2 23/3/2 33/3/2
f 24/3/2 25/3/2 34/3/2
f 33/2/2 24/2/2 34/2/2
f 25/2/2 26/2/2 35/2/2
f 34/3/2 25/3/2 35/3/2
f 26/3/2 27/3/2 36/3/2
f 35/2/2 26/2/2 36/2/2
f 27/2/2 28/2/2 37/2/2
f 36/3/2 27/3/2 37/3/2
f 28/3/2 29/3/2 38/3/2
f 37/2/2 28/2/2 38/2/2
f 29/2/2 30/2/2 39/2/2
f 38/3/2 29/3/2 39/3/2
f 39/2/2 30/2/2 40/2/2
f 41/1/2 42/1/2 43/1/2
f 43/1/2 42/1/2 44/1/2
f 47/2/3 46/2/3 45/2/3
f 48/2/3 46/2/3 47/2/3
f 49/2/3 46/2/3 48/2/3
f 50/1/3 48/1/3 47/1/3
f 51/1/3 48/1/3 50/1/3
f 52/2/4 53/2/4 54/2/4
f 54/2/4 53/2/4 55/2/4
f 55/2/4 53/2/4 56/2/4
f 54/1/4 55/1/4 57/1/4
f 57/1/4 55/1/4 58/1/4
f 62/2/5 60/2/5 59/2/5
f 63/1/5 61/1/5 60/1/5
f 63/2/5 60/2/5 62/2/5
f 64/3/5 63/3/5 62/3/5
f 65/1/5 61/1/5 63/1/5
f 65/3/5 63/3/5 64/3/5
f 66/2/5 65/2/5 64/2/5
f 67/1/5 61/1/5 65/1/5
f 67/2/5 65/2/5 66/2/5
f 68/3/5 67/3/5 66/3/5
f 69/1/5 61/1/5 67/1/5
f 69/3/5 67/3/5 68/3/5
f 70/2/5 69/2/5 68/2/5
f 71/1/5 61/1/5 69/1/5
f 71/2/5 69/2/5 70/2/5
f 72/3/5 71/3/5 70/3/5
f 73/1/5 61/1/5 71/1/5
f 73/3/5 71/3/5 72/3/5
f 74/2/5 73/2/5 72/2/5
f 75/1/5 61/1/5 73/1/5
f 75/2/5 73/2/5 74/2/5
f 76/3/5 75/3/5 74/3/5
f 77/1/5 61/1/5 75/1/5
f 77/3/5 75/3/5 76/3/5
f 78/2/5 77/2/5 76/2/5
f 79/1/5 61/1/5 77/1/5
f 79/2/5 77/2/5 78/2/5
f 80/1/5 61/1/5 79/1/5
f 81/1/6 82/1/6 83/1/6
f 83/1/6 82/1/6 84/1/6
f 84/1/6 82/1/6 85/1/6
f 85/1/6 82/1/6 86/1/6
f 86/1/6 82/1/6 87/1/6
f 87/1/6 82/1/6 88/1/6
f 88/1/6 82/1/6 89/1/6
f 89/1/6 82/1/6 90/1/6
f 90/1/6 82/1/6 91/1/6
f 91/1/6 82/1/6 92/1/6
f 93/2/6 94/2/6 95/2/6
f 95/2/6 94/2/6 96/2/6
f 95/3/6 96/3/6 97/3/6
f 97/3/6 96/3/6 98/3/6
f 97/2/6 98/2/6 99/2/6
f 99/2/6 98/2/6 100/2/6
f 99/3/6 100/3/6 101/3/6
f 101/3/6 100/3/6 102/3/6
f 101/2/6 102/2/6 103/2/6
f 103/2/6 102/2/6 104/2/6
f 103/3/6 104/3/6 105/3/6
f 105/3/6 104/3/6 106/3/6
f 105/2/6 106/2/6 107/2/6
f 107/2/6 106/2/6 108/2/6
f 107/3/6 108/3/6 109/3/6
f 109/3/6 108/3/6 110/3/6
f 109/2/6 110/2/6 111/2/6
f 111/2/6 110/2/6 112/2/6
